<svg id="visual" viewBox="0 0 1902 300" width="1902" height="300" xmlns="http://www.w3.org/2000/svg" xmlns:xlink="http://www.w3.org/1999/xlink" version="1.1"><rect x="0" y="0" width="1902" height="300" fill="#FFFFFF"></rect><defs><linearGradient id="grad1_0" x1="84.2%" y1="0%" x2="100%" y2="100%"><stop offset="-76.79999999999998%" stop-color="#039be5" stop-opacity="1"></stop><stop offset="176.79999999999995%" stop-color="#039be5" stop-opacity="1"></stop></linearGradient></defs><defs><linearGradient id="grad1_1" x1="84.2%" y1="0%" x2="100%" y2="100%"><stop offset="-76.79999999999998%" stop-color="#039be5" stop-opacity="1"></stop><stop offset="176.79999999999995%" stop-color="#83bbee" stop-opacity="1"></stop></linearGradient></defs><defs><linearGradient id="grad1_2" x1="84.2%" y1="0%" x2="100%" y2="100%"><stop offset="-76.79999999999998%" stop-color="#c5dcf7" stop-opacity="1"></stop><stop offset="176.79999999999995%" stop-color="#83bbee" stop-opacity="1"></stop></linearGradient></defs><defs><linearGradient id="grad1_3" x1="84.2%" y1="0%" x2="100%" y2="100%"><stop offset="-76.79999999999998%" stop-color="#c5dcf7" stop-opacity="1"></stop><stop offset="176.79999999999995%" stop-color="#ffffff" stop-opacity="1"></stop></linearGradient></defs><defs><linearGradient id="grad2_0" x1="0%" y1="0%" x2="15.8%" y2="100%"><stop offset="-76.79999999999998%" stop-color="#039be5" stop-opacity="1"></stop><stop offset="176.79999999999995%" stop-color="#039be5" stop-opacity="1"></stop></linearGradient></defs><defs><linearGradient id="grad2_1" x1="0%" y1="0%" x2="15.8%" y2="100%"><stop offset="-76.79999999999998%" stop-color="#83bbee" stop-opacity="1"></stop><stop offset="176.79999999999995%" stop-color="#039be5" stop-opacity="1"></stop></linearGradient></defs><defs><linearGradient id="grad2_2" x1="0%" y1="0%" x2="15.8%" y2="100%"><stop offset="-76.79999999999998%" stop-color="#83bbee" stop-opacity="1"></stop><stop offset="176.79999999999995%" stop-color="#c5dcf7" stop-opacity="1"></stop></linearGradient></defs><defs><linearGradient id="grad2_3" x1="0%" y1="0%" x2="15.8%" y2="100%"><stop offset="-76.79999999999998%" stop-color="#ffffff" stop-opacity="1"></stop><stop offset="176.79999999999995%" stop-color="#c5dcf7" stop-opacity="1"></stop></linearGradient></defs><g transform="translate(1902, 0)"><path d="M0 270C-38.7 269.3 -77.4 268.6 -103.3 249.4C-129.3 230.3 -142.5 192.5 -166.9 166.9C-191.2 141.2 -226.7 127.6 -245.8 101.8C-264.8 76 -267.4 38 -270 0L0 0Z" fill="#e2eefb"></path><path d="M0 202.5C-29 202 -58 201.5 -77.5 187.1C-97 172.7 -106.9 144.4 -125.2 125.2C-143.4 105.9 -170 95.7 -184.3 76.3C-198.6 57 -200.5 28.5 -202.5 0L0 0Z" fill="#a5ccf3"></path><path d="M0 135C-19.3 134.7 -38.7 134.3 -51.7 124.7C-64.6 115.1 -71.3 96.3 -83.4 83.4C-95.6 70.6 -113.4 63.8 -122.9 50.9C-132.4 38 -133.7 19 -135 0L0 0Z" fill="#5aabea"></path><path d="M0 67.5C-9.7 67.3 -19.3 67.2 -25.8 62.4C-32.3 57.6 -35.6 48.1 -41.7 41.7C-47.8 35.3 -56.7 31.9 -61.4 25.4C-66.2 19 -66.8 9.5 -67.5 0L0 0Z" fill="#039be5"></path></g><g transform="translate(0, 300)"><path d="M0 -270C24.1 -240.8 48.1 -211.5 84.2 -203.3C120.2 -195 168.2 -207.7 190.9 -190.9C213.6 -174.1 210.9 -127.8 219.9 -91.1C228.8 -54.3 249.4 -27.2 270 0L0 0Z" fill="#e2eefb"></path><path d="M0 -202.5C18.1 -180.6 36.1 -158.6 63.1 -152.4C90.2 -146.2 126.2 -155.8 143.2 -143.2C160.2 -130.6 158.2 -95.9 164.9 -68.3C171.6 -40.8 187.1 -20.4 202.5 0L0 0Z" fill="#a5ccf3"></path><path d="M0 -135C12 -120.4 24.1 -105.8 42.1 -101.6C60.1 -97.5 84.1 -103.9 95.5 -95.5C106.8 -87.1 105.5 -63.9 109.9 -45.5C114.4 -27.2 124.7 -13.6 135 0L0 0Z" fill="#5aabea"></path><path d="M0 -67.5C6 -60.2 12 -52.9 21 -50.8C30.1 -48.7 42.1 -51.9 47.7 -47.7C53.4 -43.5 52.7 -32 55 -22.8C57.2 -13.6 62.4 -6.8 67.5 0L0 0Z" fill="#039be5"></path></g></svg>